<?xml version="1.0" standalone="no"?><svg xmlns="http://www.w3.org/2000/svg" viewBox="0 0 1440 320"><path fill="#386FA4" fill-opacity="1" d="M0,64L14.1,90.7C28.2,117,56,171,85,170.7C112.9,171,141,117,169,117.3C197.6,117,226,171,254,170.7C282.4,171,311,117,339,106.7C367.1,96,395,128,424,128C451.8,128,480,96,508,112C536.5,128,565,192,593,186.7C621.2,181,649,107,678,106.7C705.9,107,734,181,762,213.3C790.6,245,819,235,847,202.7C875.3,171,904,117,932,117.3C960,117,988,171,1016,181.3C1044.7,192,1073,160,1101,122.7C1129.4,85,1158,43,1186,69.3C1214.1,96,1242,192,1271,240C1298.8,288,1327,288,1355,277.3C1383.5,267,1412,245,1426,234.7L1440,224L1440,0L1425.9,0C1411.8,0,1384,0,1355,0C1327.1,0,1299,0,1271,0C1242.4,0,1214,0,1186,0C1157.6,0,1129,0,1101,0C1072.9,0,1045,0,1016,0C988.2,0,960,0,932,0C903.5,0,875,0,847,0C818.8,0,791,0,762,0C734.1,0,706,0,678,0C649.4,0,621,0,593,0C564.7,0,536,0,508,0C480,0,452,0,424,0C395.3,0,367,0,339,0C310.6,0,282,0,254,0C225.9,0,198,0,169,0C141.2,0,113,0,85,0C56.5,0,28,0,14,0L0,0Z"></path></svg>