<?xml version="1.0" standalone="no"?><svg xmlns="http://www.w3.org/2000/svg" viewBox="0 0 1440 320"><path fill="#386FA4" fill-opacity="1" d="M0,32L34.3,74.7C68.6,117,137,203,206,213.3C274.3,224,343,160,411,112C480,64,549,32,617,32C685.7,32,754,64,823,117.3C891.4,171,960,245,1029,261.3C1097.1,277,1166,235,1234,224C1302.9,213,1371,235,1406,245.3L1440,256L1440,0L1405.7,0C1371.4,0,1303,0,1234,0C1165.7,0,1097,0,1029,0C960,0,891,0,823,0C754.3,0,686,0,617,0C548.6,0,480,0,411,0C342.9,0,274,0,206,0C137.1,0,69,0,34,0L0,0Z"></path></svg>