<?xml version="1.0" standalone="no"?><svg xmlns="http://www.w3.org/2000/svg" viewBox="0 0 1440 320"><path fill="#386FA4" fill-opacity="1" d="M0,288L14.1,250.7C28.2,213,56,139,85,117.3C112.9,96,141,128,169,144C197.6,160,226,160,254,138.7C282.4,117,311,75,339,80C367.1,85,395,139,424,165.3C451.8,192,480,192,508,176C536.5,160,565,128,593,133.3C621.2,139,649,181,678,176C705.9,171,734,117,762,133.3C790.6,149,819,235,847,229.3C875.3,224,904,128,932,90.7C960,53,988,75,1016,112C1044.7,149,1073,203,1101,213.3C1129.4,224,1158,192,1186,176C1214.1,160,1242,160,1271,133.3C1298.8,107,1327,53,1355,58.7C1383.5,64,1412,128,1426,160L1440,192L1440,320L1425.9,320C1411.8,320,1384,320,1355,320C1327.1,320,1299,320,1271,320C1242.4,320,1214,320,1186,320C1157.6,320,1129,320,1101,320C1072.9,320,1045,320,1016,320C988.2,320,960,320,932,320C903.5,320,875,320,847,320C818.8,320,791,320,762,320C734.1,320,706,320,678,320C649.4,320,621,320,593,320C564.7,320,536,320,508,320C480,320,452,320,424,320C395.3,320,367,320,339,320C310.6,320,282,320,254,320C225.9,320,198,320,169,320C141.2,320,113,320,85,320C56.5,320,28,320,14,320L0,320Z"></path></svg>