<?xml version="1.0" standalone="no"?><svg xmlns="http://www.w3.org/2000/svg" viewBox="0 0 1440 320"><path fill="#386FA4" fill-opacity="1" d="M0,224L14.1,224C28.2,224,56,224,85,186.7C112.9,149,141,75,169,53.3C197.6,32,226,64,254,90.7C282.4,117,311,139,339,149.3C367.1,160,395,160,424,186.7C451.8,213,480,267,508,250.7C536.5,235,565,149,593,117.3C621.2,85,649,107,678,122.7C705.9,139,734,149,762,165.3C790.6,181,819,203,847,186.7C875.3,171,904,117,932,80C960,43,988,21,1016,48C1044.7,75,1073,149,1101,170.7C1129.4,192,1158,160,1186,154.7C1214.1,149,1242,171,1271,181.3C1298.8,192,1327,192,1355,202.7C1383.5,213,1412,235,1426,245.3L1440,256L1440,320L1425.9,320C1411.8,320,1384,320,1355,320C1327.1,320,1299,320,1271,320C1242.4,320,1214,320,1186,320C1157.6,320,1129,320,1101,320C1072.9,320,1045,320,1016,320C988.2,320,960,320,932,320C903.5,320,875,320,847,320C818.8,320,791,320,762,320C734.1,320,706,320,678,320C649.4,320,621,320,593,320C564.7,320,536,320,508,320C480,320,452,320,424,320C395.3,320,367,320,339,320C310.6,320,282,320,254,320C225.9,320,198,320,169,320C141.2,320,113,320,85,320C56.5,320,28,320,14,320L0,320Z"></path></svg>