<?xml version="1.0" standalone="no"?><svg xmlns="http://www.w3.org/2000/svg" viewBox="0 0 1440 320"><path fill="#386FA4" fill-opacity="1" d="M0,96L14.1,106.7C28.2,117,56,139,85,144C112.9,149,141,139,169,154.7C197.6,171,226,213,254,240C282.4,267,311,277,339,266.7C367.1,256,395,224,424,192C451.8,160,480,128,508,101.3C536.5,75,565,53,593,80C621.2,107,649,181,678,224C705.9,267,734,277,762,250.7C790.6,224,819,160,847,160C875.3,160,904,224,932,256C960,288,988,288,1016,288C1044.7,288,1073,288,1101,272C1129.4,256,1158,224,1186,213.3C1214.1,203,1242,213,1271,202.7C1298.8,192,1327,160,1355,122.7C1383.5,85,1412,43,1426,21.3L1440,0L1440,320L1425.9,320C1411.8,320,1384,320,1355,320C1327.1,320,1299,320,1271,320C1242.4,320,1214,320,1186,320C1157.6,320,1129,320,1101,320C1072.9,320,1045,320,1016,320C988.2,320,960,320,932,320C903.5,320,875,320,847,320C818.8,320,791,320,762,320C734.1,320,706,320,678,320C649.4,320,621,320,593,320C564.7,320,536,320,508,320C480,320,452,320,424,320C395.3,320,367,320,339,320C310.6,320,282,320,254,320C225.9,320,198,320,169,320C141.2,320,113,320,85,320C56.5,320,28,320,14,320L0,320Z"></path></svg>