<?xml version="1.0" standalone="no"?><svg xmlns="http://www.w3.org/2000/svg" viewBox="0 0 1440 320"><path fill="#386FA4" fill-opacity="1" d="M0,96L14.1,112C28.2,128,56,160,85,160C112.9,160,141,128,169,133.3C197.6,139,226,181,254,181.3C282.4,181,311,139,339,138.7C367.1,139,395,181,424,176C451.8,171,480,117,508,106.7C536.5,96,565,128,593,133.3C621.2,139,649,117,678,133.3C705.9,149,734,203,762,234.7C790.6,267,819,277,847,245.3C875.3,213,904,139,932,117.3C960,96,988,128,1016,122.7C1044.7,117,1073,75,1101,96C1129.4,117,1158,203,1186,224C1214.1,245,1242,203,1271,176C1298.8,149,1327,139,1355,117.3C1383.5,96,1412,64,1426,48L1440,32L1440,320L1425.9,320C1411.8,320,1384,320,1355,320C1327.1,320,1299,320,1271,320C1242.4,320,1214,320,1186,320C1157.6,320,1129,320,1101,320C1072.9,320,1045,320,1016,320C988.2,320,960,320,932,320C903.5,320,875,320,847,320C818.8,320,791,320,762,320C734.1,320,706,320,678,320C649.4,320,621,320,593,320C564.7,320,536,320,508,320C480,320,452,320,424,320C395.3,320,367,320,339,320C310.6,320,282,320,254,320C225.9,320,198,320,169,320C141.2,320,113,320,85,320C56.5,320,28,320,14,320L0,320Z"></path></svg>