<?xml version="1.0" standalone="no"?><svg xmlns="http://www.w3.org/2000/svg" viewBox="0 0 1440 320"><path fill="#386FA4" fill-opacity="1" d="M0,128L14.1,133.3C28.2,139,56,149,85,165.3C112.9,181,141,203,169,192C197.6,181,226,139,254,101.3C282.4,64,311,32,339,26.7C367.1,21,395,43,424,53.3C451.8,64,480,64,508,96C536.5,128,565,192,593,224C621.2,256,649,256,678,240C705.9,224,734,192,762,160C790.6,128,819,96,847,117.3C875.3,139,904,213,932,208C960,203,988,117,1016,85.3C1044.7,53,1073,75,1101,112C1129.4,149,1158,203,1186,234.7C1214.1,267,1242,277,1271,282.7C1298.8,288,1327,288,1355,288C1383.5,288,1412,288,1426,288L1440,288L1440,320L1425.9,320C1411.8,320,1384,320,1355,320C1327.1,320,1299,320,1271,320C1242.4,320,1214,320,1186,320C1157.6,320,1129,320,1101,320C1072.9,320,1045,320,1016,320C988.2,320,960,320,932,320C903.5,320,875,320,847,320C818.8,320,791,320,762,320C734.1,320,706,320,678,320C649.4,320,621,320,593,320C564.7,320,536,320,508,320C480,320,452,320,424,320C395.3,320,367,320,339,320C310.6,320,282,320,254,320C225.9,320,198,320,169,320C141.2,320,113,320,85,320C56.5,320,28,320,14,320L0,320Z"></path></svg>