<?xml version="1.0" standalone="no"?><svg xmlns="http://www.w3.org/2000/svg" viewBox="0 0 1440 320"><path fill="#386FA4" fill-opacity="1" d="M0,96L14.1,80C28.2,64,56,32,85,37.3C112.9,43,141,85,169,101.3C197.6,117,226,107,254,122.7C282.4,139,311,181,339,202.7C367.1,224,395,224,424,229.3C451.8,235,480,245,508,224C536.5,203,565,149,593,128C621.2,107,649,117,678,149.3C705.9,181,734,235,762,218.7C790.6,203,819,117,847,112C875.3,107,904,181,932,213.3C960,245,988,235,1016,208C1044.7,181,1073,139,1101,133.3C1129.4,128,1158,160,1186,165.3C1214.1,171,1242,149,1271,133.3C1298.8,117,1327,107,1355,90.7C1383.5,75,1412,53,1426,42.7L1440,32L1440,320L1425.9,320C1411.8,320,1384,320,1355,320C1327.1,320,1299,320,1271,320C1242.4,320,1214,320,1186,320C1157.6,320,1129,320,1101,320C1072.9,320,1045,320,1016,320C988.2,320,960,320,932,320C903.5,320,875,320,847,320C818.8,320,791,320,762,320C734.1,320,706,320,678,320C649.4,320,621,320,593,320C564.7,320,536,320,508,320C480,320,452,320,424,320C395.3,320,367,320,339,320C310.6,320,282,320,254,320C225.9,320,198,320,169,320C141.2,320,113,320,85,320C56.5,320,28,320,14,320L0,320Z"></path></svg>