<?xml version="1.0" standalone="no"?><svg xmlns="http://www.w3.org/2000/svg" viewBox="0 0 1440 320"><path fill="#386FA4" fill-opacity="1" d="M0,32L14.1,58.7C28.2,85,56,139,85,154.7C112.9,171,141,149,169,149.3C197.6,149,226,171,254,170.7C282.4,171,311,149,339,154.7C367.1,160,395,192,424,181.3C451.8,171,480,117,508,122.7C536.5,128,565,192,593,197.3C621.2,203,649,149,678,128C705.9,107,734,117,762,122.7C790.6,128,819,128,847,144C875.3,160,904,192,932,213.3C960,235,988,245,1016,234.7C1044.7,224,1073,192,1101,149.3C1129.4,107,1158,53,1186,74.7C1214.1,96,1242,192,1271,218.7C1298.8,245,1327,203,1355,170.7C1383.5,139,1412,117,1426,106.7L1440,96L1440,320L1425.9,320C1411.8,320,1384,320,1355,320C1327.1,320,1299,320,1271,320C1242.4,320,1214,320,1186,320C1157.6,320,1129,320,1101,320C1072.9,320,1045,320,1016,320C988.2,320,960,320,932,320C903.5,320,875,320,847,320C818.8,320,791,320,762,320C734.1,320,706,320,678,320C649.4,320,621,320,593,320C564.7,320,536,320,508,320C480,320,452,320,424,320C395.3,320,367,320,339,320C310.6,320,282,320,254,320C225.9,320,198,320,169,320C141.2,320,113,320,85,320C56.5,320,28,320,14,320L0,320Z"></path></svg>