<?xml version="1.0" standalone="no"?><svg xmlns="http://www.w3.org/2000/svg" viewBox="0 0 1440 320"><path fill="#386FA4" fill-opacity="1" d="M0,96L14.1,96C28.2,96,56,96,85,101.3C112.9,107,141,117,169,117.3C197.6,117,226,107,254,133.3C282.4,160,311,224,339,224C367.1,224,395,160,424,122.7C451.8,85,480,75,508,69.3C536.5,64,565,64,593,80C621.2,96,649,128,678,138.7C705.9,149,734,139,762,144C790.6,149,819,171,847,154.7C875.3,139,904,85,932,64C960,43,988,53,1016,74.7C1044.7,96,1073,128,1101,165.3C1129.4,203,1158,245,1186,256C1214.1,267,1242,245,1271,240C1298.8,235,1327,245,1355,224C1383.5,203,1412,149,1426,122.7L1440,96L1440,320L1425.9,320C1411.8,320,1384,320,1355,320C1327.1,320,1299,320,1271,320C1242.4,320,1214,320,1186,320C1157.6,320,1129,320,1101,320C1072.9,320,1045,320,1016,320C988.2,320,960,320,932,320C903.5,320,875,320,847,320C818.8,320,791,320,762,320C734.1,320,706,320,678,320C649.4,320,621,320,593,320C564.7,320,536,320,508,320C480,320,452,320,424,320C395.3,320,367,320,339,320C310.6,320,282,320,254,320C225.9,320,198,320,169,320C141.2,320,113,320,85,320C56.5,320,28,320,14,320L0,320Z"></path></svg>