<?xml version="1.0" standalone="no"?><svg xmlns="http://www.w3.org/2000/svg" viewBox="0 0 1440 320"><path fill="#386FA4" fill-opacity="1" d="M0,64L14.1,90.7C28.2,117,56,171,85,170.7C112.9,171,141,117,169,117.3C197.6,117,226,171,254,170.7C282.4,171,311,117,339,106.7C367.1,96,395,128,424,128C451.8,128,480,96,508,112C536.5,128,565,192,593,186.7C621.2,181,649,107,678,106.7C705.9,107,734,181,762,213.3C790.6,245,819,235,847,202.7C875.3,171,904,117,932,117.3C960,117,988,171,1016,181.3C1044.7,192,1073,160,1101,122.7C1129.4,85,1158,43,1186,69.3C1214.1,96,1242,192,1271,240C1298.8,288,1327,288,1355,277.3C1383.5,267,1412,245,1426,234.7L1440,224L1440,320L1425.9,320C1411.8,320,1384,320,1355,320C1327.1,320,1299,320,1271,320C1242.4,320,1214,320,1186,320C1157.6,320,1129,320,1101,320C1072.9,320,1045,320,1016,320C988.2,320,960,320,932,320C903.5,320,875,320,847,320C818.8,320,791,320,762,320C734.1,320,706,320,678,320C649.4,320,621,320,593,320C564.7,320,536,320,508,320C480,320,452,320,424,320C395.3,320,367,320,339,320C310.6,320,282,320,254,320C225.9,320,198,320,169,320C141.2,320,113,320,85,320C56.5,320,28,320,14,320L0,320Z"></path></svg>