<?xml version="1.0" standalone="no"?><svg xmlns="http://www.w3.org/2000/svg" viewBox="0 0 1440 320"><path fill="#386FA4" fill-opacity="1" d="M0,160L14.1,165.3C28.2,171,56,181,85,176C112.9,171,141,149,169,133.3C197.6,117,226,107,254,96C282.4,85,311,75,339,90.7C367.1,107,395,149,424,160C451.8,171,480,149,508,165.3C536.5,181,565,235,593,261.3C621.2,288,649,288,678,288C705.9,288,734,288,762,245.3C790.6,203,819,117,847,101.3C875.3,85,904,139,932,176C960,213,988,235,1016,229.3C1044.7,224,1073,192,1101,181.3C1129.4,171,1158,181,1186,202.7C1214.1,224,1242,256,1271,250.7C1298.8,245,1327,203,1355,208C1383.5,213,1412,267,1426,293.3L1440,320L1440,320L1425.9,320C1411.8,320,1384,320,1355,320C1327.1,320,1299,320,1271,320C1242.4,320,1214,320,1186,320C1157.6,320,1129,320,1101,320C1072.9,320,1045,320,1016,320C988.2,320,960,320,932,320C903.5,320,875,320,847,320C818.8,320,791,320,762,320C734.1,320,706,320,678,320C649.4,320,621,320,593,320C564.7,320,536,320,508,320C480,320,452,320,424,320C395.3,320,367,320,339,320C310.6,320,282,320,254,320C225.9,320,198,320,169,320C141.2,320,113,320,85,320C56.5,320,28,320,14,320L0,320Z"></path></svg>